# xmcd
#
# Track frame offsets:
#	150
#	16039
#	47860
#	78499
#	115913
#	146541
#
# Disc length: 2369 seconds
#
# Revision: 0
# Processed by: cddbd v1.5.1PL2 Copyright (c) Steve Scherf et al.
# Submitted via: EasyCDDAExtractor 9.0.0.1
#
DISCID=45093f06
DTITLE=ATB - Let U Go
DYEAR=2001
DGENRE=Techno
TTITLE0=ATB-Let U Go (Airplay Mix)
TTITLE1=ATB-Let U Go (ATB Remix)
TTITLE2=ATB-Let U Go (UK Dub Mix)
TTITLE3=ATB-Let U Go (Clubb Mix)
TTITLE4=ATB-Let U Go (Trisco Remix)
TTITLE5=ATB-Let U Go (Wippenberg Remix)
EXTD=
EXTT0=
EXTT1=
EXTT2=
EXTT3=
EXTT4=
EXTT5=
PLAYORDER=
